<?xml version="1.0" standalone="no"?>
<!DOCTYPE svg PUBLIC "-//W3C//DTD SVG 20010904//EN"
 "http://www.w3.org/TR/2001/REC-SVG-20010904/DTD/svg10.dtd">
<svg version="1.0" xmlns="http://www.w3.org/2000/svg"
 width="106.000000pt" height="106.000000pt" viewBox="0 0 106.000000 106.000000"
 preserveAspectRatio="xMidYMid meet">

<g transform="translate(0.000000,106.000000) scale(0.100000,-0.100000)"
fill="#000000" stroke="none">
<path d="M420 1044 c-197 -42 -355 -197 -407 -397 -21 -81 -13 -210 18 -292
66 -179 209 -301 400 -341 263 -55 535 117 604 383 19 74 19 193 0 268 -50
190 -230 354 -425 385 -82 13 -109 12 -190 -6z m67 -380 c4 -10 -9 -31 -38
-60 l-43 -44 151 0 c164 0 183 -3 183 -30 0 -27 -19 -30 -183 -30 l-151 0 43
-44 c29 -29 42 -50 38 -60 -11 -28 -31 -17 -107 59 l-74 75 74 75 c76 76 96
87 107 59z"/>
</g>
</svg>
