<svg width="25" height="25" viewBox="0 0 25 25" fill="none" xmlns="http://www.w3.org/2000/svg">
<g id="cib:instagram" clip-path="url(#clip0_456_1247)">
<path id="Vector" d="M12.5002 0.4375C9.23846 0.4375 8.83196 0.45325 7.55546 0.50725C6.27371 0.57025 5.40671 0.769 4.64171 1.066C3.84109 1.36833 3.116 1.84157 2.51696 2.45275C1.90484 3.05102 1.43145 3.77633 1.13021 4.5775C0.833209 5.3425 0.634459 6.2095 0.571459 7.49125C0.513709 8.7685 0.501709 9.17425 0.501709 12.436C0.501709 15.6978 0.517459 16.1042 0.571459 17.3807C0.634459 18.6588 0.833209 19.5295 1.13021 20.2945C1.43254 21.0951 1.90578 21.8202 2.51696 22.4193C3.11523 23.0314 3.84054 23.5048 4.64171 23.806C5.40671 24.0993 6.27746 24.3018 7.55546 24.3647C8.83271 24.4225 9.23846 24.4345 12.5002 24.4345C15.762 24.4345 16.1685 24.4188 17.445 24.3647C18.723 24.3018 19.5937 24.0985 20.3587 23.806C21.1593 23.5037 21.8844 23.0304 22.4835 22.4193C23.0975 21.8226 23.5712 21.0968 23.8702 20.2945C24.1635 19.5295 24.366 18.6588 24.429 17.3807C24.4867 16.1035 24.4987 15.6978 24.4987 12.436C24.4987 9.17425 24.483 8.76775 24.429 7.49125C24.366 6.21325 24.1627 5.338 23.8702 4.5775C23.5679 3.77688 23.0946 3.05179 22.4835 2.45275C21.8868 1.83871 21.161 1.36503 20.3587 1.066C19.5937 0.769 18.723 0.57025 17.445 0.50725C16.1677 0.4495 15.762 0.4375 12.5002 0.4375ZM12.5002 2.5975C15.7035 2.5975 16.086 2.61325 17.352 2.66725C18.5197 2.722 19.1557 2.917 19.578 3.082C20.0999 3.27494 20.5723 3.5816 20.961 3.97975C21.3593 4.36611 21.6649 4.83765 21.855 5.359C22.02 5.78125 22.215 6.41725 22.2697 7.585C22.3237 8.851 22.3395 9.23425 22.3395 12.4367C22.3395 15.6392 22.3237 16.0225 22.2652 17.2885C22.2022 18.4563 22.0072 19.0923 21.843 19.5145C21.6157 20.0778 21.3622 20.4715 20.9437 20.8975C20.5539 21.2933 20.0817 21.5985 19.5607 21.7915C19.1437 21.9565 18.4987 22.1515 17.3265 22.2062C16.0537 22.2603 15.6787 22.276 12.4672 22.276C9.25571 22.276 8.88146 22.2603 7.60721 22.2017C6.43946 22.1388 5.79521 21.9438 5.37296 21.7795C4.80296 21.5522 4.41221 21.2987 3.99371 20.8802C3.57146 20.458 3.30296 20.056 3.09596 19.4972C2.92796 19.0802 2.73596 18.4352 2.67371 17.263C2.63096 16.0052 2.61071 15.6153 2.61071 12.4188C2.61071 9.22375 2.63096 8.833 2.67371 7.5595C2.73596 6.38725 2.92796 5.74375 3.09596 5.32525C3.30296 4.7545 3.57221 4.3645 3.99371 3.94225C4.41146 3.5245 4.80296 3.2545 5.37296 3.043C5.79521 2.87875 6.42371 2.68375 7.59596 2.62525C8.86871 2.5795 9.24371 2.563 12.4507 2.563L12.5002 2.5975ZM12.5002 6.27775C11.6912 6.27745 10.8901 6.43658 10.1426 6.74603C9.39516 7.05548 8.71599 7.5092 8.14395 8.08124C7.57191 8.65328 7.11819 9.33245 6.80874 10.0799C6.49929 10.8274 6.34016 11.6285 6.34046 12.4375C6.34016 13.2465 6.49929 14.0476 6.80874 14.7951C7.11819 15.5426 7.57191 16.2217 8.14395 16.7938C8.71599 17.3658 9.39516 17.8195 10.1426 18.129C10.8901 18.4384 11.6912 18.5975 12.5002 18.5972C13.3092 18.5975 14.1103 18.4384 14.8578 18.129C15.6053 17.8195 16.2844 17.3658 16.8565 16.7938C17.4285 16.2217 17.8822 15.5426 18.1917 14.7951C18.5011 14.0476 18.6603 13.2465 18.66 12.4375C18.6603 11.6285 18.5011 10.8274 18.1917 10.0799C17.8822 9.33245 17.4285 8.65328 16.8565 8.08124C16.2844 7.5092 15.6053 7.05548 14.8578 6.74603C14.1103 6.43658 13.3092 6.27745 12.5002 6.27775ZM12.5002 16.4373C10.2892 16.4373 8.50046 14.6485 8.50046 12.4375C8.50046 10.2265 10.2892 8.43775 12.5002 8.43775C14.7112 8.43775 16.5 10.2265 16.5 12.4375C16.5 14.6485 14.7112 16.4373 12.5002 16.4373ZM20.3482 6.03175C20.3478 6.414 20.1957 6.78046 19.9253 7.0506C19.6548 7.32076 19.2882 7.4725 18.906 7.4725C18.717 7.4725 18.5298 7.43527 18.3552 7.36294C18.1806 7.29061 18.0219 7.1846 17.8883 7.05095C17.7546 6.91731 17.6486 6.75865 17.5763 6.58403C17.5039 6.40941 17.4667 6.22225 17.4667 6.03325C17.4667 5.84424 17.5039 5.65709 17.5763 5.48247C17.6486 5.30786 17.7546 5.14919 17.8883 5.01555C18.0219 4.8819 18.1806 4.77589 18.3552 4.70356C18.5298 4.63123 18.717 4.594 18.906 4.594C19.6987 4.594 20.3482 5.239 20.3482 6.03175Z" fill="black"/>
</g>
<defs>
<clipPath id="clip0_456_1247">
<rect width="24" height="24" fill="white" transform="translate(0.5 0.4375)"/>
</clipPath>
</defs>
</svg>
