<svg width="165" height="158" viewBox="0 0 165 158" fill="none" xmlns="http://www.w3.org/2000/svg">
<path d="M-11.862 -29.9711C-37.595 -23.4385 -53.16 2.71788 -46.6274 28.4508C-40.0948 54.1842 -13.9385 69.7488 11.7945 63.2163C-13.9385 69.7488 -29.5036 95.9048 -22.971 121.638C-16.4383 147.372 9.71798 162.936 35.4509 156.404C61.1843 149.871 76.749 123.715 70.2164 97.9817C76.749 123.715 102.905 139.28 128.638 132.747C154.372 126.214 169.936 100.059 163.404 74.3252C156.871 48.5918 130.715 33.0271 104.982 39.5598C130.715 33.0271 146.28 6.87124 139.747 -18.8621C133.215 -44.5951 107.059 -60.1602 81.3253 -53.6275C55.5919 -47.0949 40.0273 -20.9386 46.5599 4.79436C40.0273 -20.9386 13.8713 -36.5037 -11.862 -29.9711Z" fill="#ECE7E1"/>
</svg>
