<svg width="74" height="83" viewBox="0 0 74 83" fill="none" xmlns="http://www.w3.org/2000/svg">
<path id="Flower" fill-rule="evenodd" clip-rule="evenodd" d="M47.2451 23.1038C68.6534 -1.74734 89.5455 35.0117 57.5622 40.9656C89.5455 47.1784 68.3955 83.6786 47.2451 58.8272C58.0781 89.8911 16.0354 89.6324 26.8686 58.8272C5.46029 83.6786 -15.4321 47.1784 16.5513 40.9656C-15.69 35.0117 5.46029 -1.48848 26.8686 23.1038C15.7775 -7.70127 58.0781 -7.70127 47.2451 23.1038ZM36.9277 36.306C39.5072 36.306 41.8285 38.377 41.8285 40.9656C41.8285 43.5542 39.5072 45.8841 36.9277 45.8841C34.3485 45.8841 32.2849 43.5542 32.2849 40.9656C32.2849 38.377 34.3485 36.306 36.9277 36.306Z" fill="#FCF8F6"/>
</svg>
