<svg width="88" height="88" viewBox="0 0 88 88" fill="none" xmlns="http://www.w3.org/2000/svg">
<g id="fluent-emoji-high-contrast:musical-note">
<path id="Vector" d="M80.8775 7.88983C80.8775 6.43233 79.6125 5.33233 78.1825 5.52483L31.515 11.5748C30.3325 11.7398 29.425 12.7573 29.425 13.9673V51.3948C27.8025 50.8448 26.0425 50.5148 24.2275 50.5148C15.4 50.5148 8.25 57.6923 8.25 66.5198C8.25 75.3473 15.4 82.4973 24.2275 82.4973C33.055 82.4973 40.205 75.3473 40.205 66.5198C40.205 66.1898 40.1775 65.8323 40.1775 65.5023V27.2773C40.1775 26.2048 40.975 25.3248 42.02 25.1873L67.7325 21.8598C68.9975 21.6948 70.125 22.6848 70.125 23.9498V41.9073C67.7181 41.0731 65.1466 40.8267 62.6251 41.1887C60.1036 41.5506 57.7052 42.5104 55.6301 43.988C53.5551 45.4656 51.8635 47.418 50.6967 49.6824C49.5298 51.9468 48.9215 54.4575 48.9225 57.0048C48.9225 65.8323 56.0725 72.9823 64.9 72.9823C73.7275 72.9823 80.8775 65.8323 80.8775 57.0048V56.9498V7.88983Z" fill="#FCF8F6"/>
</g>
</svg>
