<svg width="167" height="211" viewBox="0 0 167 211" fill="none" xmlns="http://www.w3.org/2000/svg">
<g id="Frame 88">
<path id="Vector" d="M-10.3912 182.093L-24 168.723L15.155 129.568C20.0892 124.634 23.4731 118.468 25.3067 111.07C27.1403 103.672 28.0539 92.3296 28.0475 77.0432C28.0475 67.8115 30.1167 58.739 34.255 49.8257C38.3933 40.9124 44.2825 32.6357 51.9225 24.9957C66.4067 10.5116 82.4029 2.31447 99.9113 0.404471C117.42 -1.50553 131.824 3.34905 143.125 14.9682C154.585 26.4282 159.36 40.9124 157.45 58.4207C155.54 75.929 147.423 91.8457 133.098 106.171C125.458 113.811 117.181 119.7 108.268 123.838C99.3542 127.977 90.2817 130.046 81.05 130.046C65.6108 130.046 54.31 130.921 47.1475 132.672C39.985 134.423 33.8571 137.845 28.7638 142.938L-10.3912 182.093ZM55.265 102.351C62.7458 109.672 72.8529 112.378 85.5863 110.468C98.3196 108.558 109.7 102.589 119.727 92.562C129.914 82.3753 136.004 70.9535 137.997 58.2966C139.989 45.6396 137.242 35.7331 129.755 28.577C122.115 20.937 112.129 18.072 99.7967 19.982C87.4644 21.892 76.1222 27.9403 65.77 38.127C55.7425 48.1545 49.656 59.4967 47.5104 72.1536C45.3648 84.8105 47.9497 94.8762 55.265 102.351ZM128.8 210.743C118.295 210.743 109.302 207.003 101.821 199.522C94.3404 192.041 90.6 183.048 90.6 172.543C90.6 162.038 94.3404 153.045 101.821 145.564C109.302 138.084 118.295 134.343 128.8 134.343C139.305 134.343 148.298 138.084 155.779 145.564C163.26 153.045 167 162.038 167 172.543C167 183.048 163.26 192.041 155.779 199.522C148.298 207.003 139.305 210.743 128.8 210.743Z" fill="#6DB8BE"/>
</g>
</svg>
