<svg width="166" height="168" viewBox="0 0 166 168" fill="none" xmlns="http://www.w3.org/2000/svg">
<g id="Frame 99">
<path id="Shield 2" fill-rule="evenodd" clip-rule="evenodd" d="M106.542 7.06193C145.091 9.37049 184.434 22.3882 216.752 43.5286C209.882 64.2906 203.012 85.0525 196.143 105.815C185.839 136.956 120.706 149.025 120.706 149.025C120.706 149.025 75.6264 100.495 85.9324 69.3479C92.8022 48.5858 99.672 27.824 106.542 7.06193Z" fill="#C9B749"/>
<path id="Keyhole" d="M72.218 47.4291C68.4785 29.496 50.8876 17.9978 32.9305 21.7423C14.9739 25.4867 3.44478 43.0588 7.18396 60.9903C9.74763 73.2846 18.8262 82.5554 30.075 85.9612L25.9896 153.244L91.3491 139.615L60.8206 79.7804C70.0209 72.1835 74.8181 59.898 72.218 47.4291Z" fill="#6DB8BE"/>
</g>
</svg>
