<svg width="49" height="24" viewBox="0 0 49 24" fill="none" xmlns="http://www.w3.org/2000/svg">
<g id="Frame 37">
<path id="Magnet" d="M36.873 0H26V8.286H36.873C38.9478 8.286 40.6311 9.95608 40.6311 12C40.6311 14.0436 38.9478 15.714 36.873 15.714H26V24H36.873C43.5571 24 49 18.6211 49 12C49 5.37893 43.5571 0 36.873 0Z" fill="#ECE7E1"/>
<line id="Line 1" x1="24.6296" y1="0.0024544" x2="24.5926" y2="24.0025" stroke="black" stroke-width="3.18519"/>
<path id="Magnet_2" d="M12.127 0H23V8.286H12.127C10.0522 8.286 8.36893 9.95608 8.36893 12C8.36893 14.0436 10.0522 15.714 12.127 15.714H23V24H12.127C5.44288 24 0 18.6211 0 12C0 5.37893 5.44288 0 12.127 0Z" fill="#ECE7E1"/>
</g>
</svg>
