<svg width="61" height="30" viewBox="0 0 61 30" fill="none" xmlns="http://www.w3.org/2000/svg">
<g id="Frame 37">
<path id="Magnet" d="M45.908 0H32.4048V10.2905H45.908C48.4847 10.2905 50.5753 12.3646 50.5753 14.9029C50.5753 17.4408 48.4847 19.5154 45.908 19.5154H32.4048V29.8058H45.908C54.2091 29.8058 60.9687 23.1257 60.9687 14.9029C60.9687 6.68014 54.2091 0 45.908 0Z" fill="#ECE7E1"/>
<line id="Line 1" x1="30.7034" y1="0.00304814" x2="30.6575" y2="29.8089" stroke="black" stroke-width="3.95571"/>
<path id="Magnet_2" d="M15.1767 0H28.6799V10.2905H15.1767C12.6 10.2905 10.5095 12.3646 10.5095 14.9029C10.5095 17.4408 12.6 19.5154 15.1767 19.5154H28.6799V29.8058H15.1767C6.87558 29.8058 0.116016 23.1257 0.116016 14.9029C0.116016 6.68014 6.87558 0 15.1767 0Z" fill="#ECE7E1"/>
</g>
</svg>
