<svg width="59" height="52" viewBox="0 0 59 52" fill="none" xmlns="http://www.w3.org/2000/svg">
<path id="Heart 2" d="M36.3087 46.9076C42.7368 42.0258 52.0131 34.3831 55.8788 28.2707C58.7712 23.7042 59.7124 18.0467 58.4543 12.7865C55.7663 0.804122 40.8815 -4.09216 31.6098 3.9377C31.0884 4.38633 30.6077 4.88367 30.1143 5.39436C29.913 5.60278 29.7094 5.81339 29.5 6.02383C29.2906 5.81339 29.087 5.60275 28.8857 5.39433C28.3923 4.88367 27.9116 4.38633 27.3902 3.9377C18.1185 -4.09216 3.23374 0.804122 0.545744 12.7865C-0.712345 18.0467 0.228676 23.7042 3.12124 28.2707C6.98684 34.3831 16.2632 42.0258 22.6913 46.9076C24.4824 48.2682 29.5 51.8122 29.5 51.8122C29.5 51.8122 34.5176 48.2682 36.3087 46.9076Z" fill="#FCF8F6"/>
</svg>
