<svg width="109" height="109" viewBox="0 0 109 109" fill="none" xmlns="http://www.w3.org/2000/svg">
<g id="lucide:sparkle" clip-path="url(#clip0_47_22)">
<path id="Vector" d="M49.4263 68.8561C48.8137 67.6473 47.8884 66.6248 46.7467 65.8948C45.6049 65.1649 44.2884 64.7543 42.9341 64.7056L18.9267 63.846C18.5149 63.8212 18.1224 63.6629 17.8088 63.3948C17.4951 63.1268 17.2775 62.7638 17.1888 62.3609C17.1002 61.958 17.1454 61.5372 17.3176 61.1623C17.4897 60.7874 17.7795 60.4789 18.1429 60.2836L39.5716 49.423C40.78 48.8108 41.8024 47.8861 42.5324 46.7451C43.2625 45.604 43.6735 44.2882 43.7229 42.9345L44.5826 18.9271C44.6058 18.514 44.7636 18.1198 45.0318 17.8048C45.3 17.4898 45.6639 17.2711 46.068 17.1822C46.4721 17.0933 46.8941 17.139 47.2698 17.3124C47.6455 17.4858 47.9541 17.7773 48.1486 18.1424L59.0019 39.5727C59.6144 40.7815 60.5397 41.8041 61.6815 42.534C62.8233 43.264 64.1398 43.6746 65.494 43.7233L89.5006 44.5792C89.915 44.601 90.3108 44.7582 90.6273 45.0266C90.9437 45.295 91.1634 45.6598 91.2526 46.065C91.3417 46.4703 91.2955 46.8936 91.1209 47.2701C90.9463 47.6465 90.6531 47.9553 90.2861 48.149L68.8558 59.0022C67.647 59.6148 66.6244 60.5401 65.8945 61.6818C65.1646 62.8236 64.7539 64.1401 64.7053 65.4944L63.8456 89.5018C63.8223 89.9149 63.6646 90.309 63.3964 90.6241C63.1282 90.9391 62.7643 91.1578 62.3602 91.2467C61.9561 91.3356 61.534 91.2899 61.1584 91.1165C60.7827 90.9431 60.4741 90.6516 60.2795 90.2864L49.4263 68.8561Z" fill="#C9B749" stroke="#C9B749" stroke-width="7.58333" stroke-linecap="round" stroke-linejoin="round"/>
</g>
<defs>
<clipPath id="clip0_47_22">
<rect width="91" height="91" fill="white" transform="translate(0 19.5546) rotate(-12.4088)"/>
</clipPath>
</defs>
</svg>
