<svg width="96" height="96" viewBox="0 0 96 96" fill="none" xmlns="http://www.w3.org/2000/svg">
<g id="material-symbols:sports-tennis">
<path id="Vector" d="M13.7 79.9999L8 74.3999L24.4 57.9999C26.4667 55.9332 27.884 53.3505 28.652 50.2519C29.42 47.1532 29.8027 42.4025 29.8 35.9999C29.8 32.1332 30.6667 28.3332 32.4 24.5999C34.1333 20.8665 36.6 17.3999 39.8 14.1999C45.8667 8.13321 52.5667 4.69988 59.9 3.89988C67.2333 3.09988 73.2667 5.13321 78 9.99988C82.8 14.7999 84.8 20.8665 84 28.1999C83.2 35.5332 79.8 42.1999 73.8 48.1999C70.6 51.3999 67.1333 53.8665 63.4 55.5999C59.6667 57.3332 55.8667 58.1999 52 58.1999C45.5333 58.1999 40.8 58.5665 37.8 59.2999C34.8 60.0332 32.2333 61.4665 30.1 63.5999L13.7 79.9999ZM41.2 46.5999C44.3333 49.6665 48.5667 50.7999 53.9 49.9999C59.2333 49.1999 64 46.6999 68.2 42.4999C72.4667 38.2332 75.0173 33.4492 75.852 28.1479C76.6867 22.8465 75.536 18.6972 72.4 15.6999C69.2 12.4999 65.0173 11.2999 59.852 12.0999C54.6867 12.8999 49.936 15.4332 45.6 19.6999C41.4 23.8999 38.8507 28.6505 37.952 33.9519C37.0533 39.2532 38.136 43.4692 41.2 46.5999ZM72 91.9999C67.6 91.9999 63.8333 90.4332 60.7 87.2999C57.5667 84.1665 56 80.3999 56 75.9999C56 71.5999 57.5667 67.8332 60.7 64.6999C63.8333 61.5665 67.6 59.9999 72 59.9999C76.4 59.9999 80.1667 61.5665 83.3 64.6999C86.4333 67.8332 88 71.5999 88 75.9999C88 80.3999 86.4333 84.1665 83.3 87.2999C80.1667 90.4332 76.4 91.9999 72 91.9999Z" fill="#FCF8F6"/>
</g>
</svg>
