<svg width="30" height="30" viewBox="0 0 30 30" fill="none" xmlns="http://www.w3.org/2000/svg">
<g id="mingcute:github-fill" clip-path="url(#clip0_456_1220)">
<g id="Group">
<path id="Vector" d="M8.98745 3.72863C9.89529 4.03498 10.7587 4.45997 11.5552 4.99255C12.6807 4.70445 13.8382 4.55991 15.0001 4.56238C16.2 4.56238 17.3576 4.71221 18.4427 4.99134C19.2388 4.45928 20.1018 4.0347 21.0092 3.72863C21.8514 3.44226 23.0512 2.97826 23.7642 3.7673C24.2475 4.3038 24.3683 5.2028 24.4541 5.88913C24.5508 6.65522 24.5737 7.6533 24.32 8.64413C25.2903 9.89717 25.8751 11.3919 25.8751 13.0207C25.8751 15.4881 24.5387 17.6305 22.5607 19.1143C21.6083 19.8187 20.5526 20.3714 19.4311 20.7528C19.6897 21.3449 19.8334 21.9998 19.8334 22.6874V26.3124C19.8334 26.6329 19.7061 26.9402 19.4795 27.1668C19.2529 27.3934 18.9456 27.5207 18.6251 27.5207H11.3751C11.0546 27.5207 10.7473 27.3934 10.5207 27.1668C10.2941 26.9402 10.1668 26.6329 10.1668 26.3124V25.1149C9.01282 25.2563 8.04495 25.1306 7.22207 24.7814C6.36174 24.4165 5.76241 23.851 5.3117 23.3097C4.88395 22.7973 4.41753 21.6422 3.74328 21.4174C3.59269 21.3673 3.45346 21.288 3.33352 21.184C3.21358 21.0801 3.1153 20.9535 3.04427 20.8116C2.90083 20.5249 2.87714 20.193 2.97841 19.8889C3.07967 19.5848 3.29761 19.3333 3.58427 19.1899C3.87092 19.0464 4.20282 19.0227 4.50695 19.124C5.3117 19.3923 5.83611 19.9723 6.19499 20.4387C6.77499 21.1878 7.24624 22.1666 8.16457 22.5569C8.54278 22.7176 9.09741 22.8227 9.96499 22.7043L10.1668 22.6632C10.1696 22.0057 10.3065 21.3556 10.5692 20.7528C9.44767 20.3714 8.39198 19.8187 7.43957 19.1143C5.46153 17.6305 4.12511 15.4893 4.12511 13.0207C4.12511 11.3943 4.70874 9.9008 5.67661 8.64896C5.42286 7.65813 5.44461 6.65763 5.54128 5.89034L5.54732 5.84442C5.63553 5.14117 5.73824 4.31346 6.23124 3.7673C6.94416 2.97826 8.14524 3.44346 8.98624 3.72984L8.98745 3.72863Z" fill="black"/>
</g>
</g>
<defs>
<clipPath id="clip0_456_1220">
<rect width="29" height="29" fill="white" transform="translate(0.5 0.9375)"/>
</clipPath>
</defs>
</svg>
