<svg width="84" height="84" viewBox="0 0 84 84" fill="none" xmlns="http://www.w3.org/2000/svg">
<g id="octicon:person-fill-16">
<path id="Vector" d="M22.2745 24.9735C22.2742 21.5676 23.1558 18.2197 24.8336 15.2557C26.5113 12.2917 28.928 9.81263 31.8482 8.05988C34.7685 6.30714 38.0929 5.34045 41.4977 5.25393C44.9025 5.1674 48.2717 5.96401 51.2772 7.56617C54.2827 9.16833 56.8222 11.5214 58.6483 14.3964C60.4744 17.2714 61.5249 20.5702 61.6976 23.9717C61.8703 27.3733 61.1593 30.7615 59.6337 33.8066C58.1081 36.8518 55.8201 39.45 52.9922 41.3483C58.7717 43.507 63.7915 47.3127 67.4306 52.2946C71.0697 57.2764 73.1685 63.2158 73.4672 69.378C73.4912 69.8948 73.4132 70.4113 73.2375 70.8979C73.0618 71.3844 72.7919 71.8316 72.4433 72.2139C72.0947 72.5961 71.6742 72.9059 71.2058 73.1256C70.7374 73.3453 70.2303 73.4705 69.7135 73.494H14.284C13.2412 73.4451 12.2605 72.984 11.5576 72.2121C10.8547 71.4403 10.487 70.4209 10.5355 69.378C10.8333 63.2149 12.9316 57.2744 16.5708 52.2915C20.21 47.3086 25.2303 43.5021 31.0105 41.343C28.3211 39.5427 26.1169 37.1072 24.5931 34.252C23.0694 31.3968 22.273 28.2099 22.2745 24.9735Z" fill="#FCF8F6"/>
</g>
</svg>
