<svg width="16" height="16" viewBox="0 0 16 16" fill="none" xmlns="http://www.w3.org/2000/svg">
<g id="ph:chat-fill">
<path id="Vector" d="M14.0359 4.00001V12.0001C14.0359 12.2653 13.9381 12.5197 13.7639 12.7072C13.5898 12.8947 13.3536 13.0001 13.1073 13.0001H5.38851L3.49653 14.7601L3.49131 14.7645C3.32415 14.917 3.11205 15.0006 2.89295 15.0001C2.75673 14.9999 2.62221 14.9674 2.49889 14.9051C2.33848 14.8255 2.20276 14.6978 2.10797 14.5373C2.01317 14.3768 1.96332 14.1903 1.96437 14.0001V4.00001C1.96437 3.73479 2.0622 3.48043 2.23635 3.2929C2.41049 3.10536 2.64668 3 2.89295 3H13.1073C13.3536 3 13.5898 3.10536 13.7639 3.2929C13.9381 3.48043 14.0359 3.73479 14.0359 4.00001Z" fill="#FCF8F6"/>
</g>
</svg>
