<svg width="30" height="30" viewBox="0 0 30 30" fill="none" xmlns="http://www.w3.org/2000/svg">
<g id="ph:globe">
<path id="Vector" d="M15 3.65625C12.6699 3.65625 10.3921 4.34721 8.45469 5.64175C6.51728 6.93629 5.00724 8.77627 4.11555 10.929C3.22385 13.0818 2.99055 15.4506 3.44513 17.7359C3.89971 20.0212 5.02177 22.1205 6.6694 23.7681C8.31704 25.4157 10.4163 26.5378 12.7016 26.9924C14.9869 27.447 17.3558 27.2136 19.5085 26.322C21.6612 25.4303 23.5012 23.9202 24.7958 21.9828C26.0903 20.0454 26.7813 17.7676 26.7813 15.4375C26.7777 12.314 25.5353 9.3195 23.3266 7.11087C21.118 4.90224 18.1235 3.65985 15 3.65625ZM24.9688 15.4375C24.9696 16.3568 24.8426 17.2718 24.5915 18.1562H20.2291C20.5071 16.3544 20.5071 14.5206 20.2291 12.7187H24.5915C24.8426 13.6032 24.9696 14.5182 24.9688 15.4375ZM12.0547 19.9687H17.9453C17.365 21.8703 16.3576 23.614 15 25.0664C13.6431 23.6135 12.6357 21.87 12.0547 19.9687ZM11.6129 18.1562C11.3017 16.3571 11.3017 14.5179 11.6129 12.7187H18.3962C18.7074 14.5179 18.7074 16.3571 18.3962 18.1562H11.6129ZM5.03126 15.4375C5.03045 14.5182 5.15741 13.6032 5.40848 12.7187H9.77094C9.49295 14.5206 9.49295 16.3544 9.77094 18.1562H5.40848C5.15741 17.2718 5.03045 16.3568 5.03126 15.4375ZM17.9453 10.9062H12.0547C12.635 9.0047 13.6424 7.26104 15 5.80859C16.3569 7.26152 17.3643 9.00503 17.9453 10.9062ZM23.8733 10.9062H19.8382C19.3296 9.04042 18.4725 7.28771 17.3121 5.74063C18.7142 6.07744 20.0269 6.71346 21.1601 7.60507C22.2934 8.49668 23.2205 9.62281 23.8779 10.9062H23.8733ZM12.6879 5.74063C11.5275 7.28771 10.6704 9.04042 10.1618 10.9062H6.12215C6.77949 9.62281 7.70658 8.49668 8.83987 7.60507C9.97316 6.71346 11.2858 6.07744 12.6879 5.74063ZM6.12215 19.9687H10.1618C10.6704 21.8346 11.5275 23.5873 12.6879 25.1344C11.2858 24.7976 9.97316 24.1615 8.83987 23.2699C7.70658 22.3783 6.77949 21.2522 6.12215 19.9687ZM17.3121 25.1344C18.4725 23.5873 19.3296 21.8346 19.8382 19.9687H23.8779C23.2205 21.2522 22.2934 22.3783 21.1601 23.2699C20.0269 24.1615 18.7142 24.7976 17.3121 25.1344Z" fill="black"/>
</g>
</svg>
