<svg width="30" height="30" viewBox="0 0 30 30" fill="none" xmlns="http://www.w3.org/2000/svg">
<g id="ri:linkedin-fill">
<path id="Vector" d="M8.88582 6.9794C8.8855 7.62034 8.63058 8.2349 8.17714 8.68789C7.7237 9.14087 7.10889 9.39518 6.46795 9.39486C5.82701 9.39454 5.21245 9.13962 4.75946 8.68618C4.30647 8.23274 4.05217 7.61792 4.05249 6.97698C4.05281 6.33604 4.30773 5.72148 4.76117 5.26849C5.21461 4.81551 5.82943 4.5612 6.47037 4.56152C7.1113 4.56184 7.72587 4.81676 8.17885 5.2702C8.63184 5.72364 8.88614 6.33846 8.88582 6.9794ZM8.95832 11.1844H4.12499V26.3127H8.95832V11.1844ZM16.595 11.1844H11.7858V26.3127H16.5467V18.374C16.5467 13.9515 22.3104 13.5406 22.3104 18.374V26.3127H27.0833V16.7306C27.0833 9.27523 18.5525 9.55315 16.5467 13.2144L16.595 11.1844Z" fill="black"/>
</g>
</svg>
