<svg width="25" height="25" viewBox="0 0 25 25" fill="none" xmlns="http://www.w3.org/2000/svg">
<g id="simple-icons:bento" clip-path="url(#clip0_456_1284)">
<path id="Vector" d="M0.5 10.8725C0.5 10.6165 0.551 10.3605 0.653 10.1145C0.886 9.55447 1.507 9.06847 2.748 8.09647L8.954 3.24047C10.195 2.26847 10.816 1.78247 11.531 1.60047C12.161 1.44047 12.839 1.44047 13.469 1.60047C14.184 1.78347 14.805 2.26847 16.046 3.24047L22.252 8.09647C23.493 9.06847 24.114 9.55447 24.347 10.1145C24.449 10.3605 24.5 10.6165 24.5 10.8725V14.0025C24.5 14.2585 24.449 14.5145 24.347 14.7605C24.114 15.3205 23.493 15.8065 22.252 16.7775L16.046 21.6345C14.805 22.6065 14.184 23.0915 13.469 23.2745C12.839 23.4345 12.161 23.4345 11.531 23.2745C10.816 23.0915 10.195 22.6065 8.954 21.6345L2.748 16.7775C1.507 15.8075 0.886 15.3205 0.653 14.7605C0.553175 14.5202 0.501203 14.2627 0.5 14.0025L0.5 10.8725ZM9.84 7.63447L10.727 8.32847C11.347 8.81347 11.657 9.05647 12.016 9.14847C12.331 9.22847 12.669 9.22847 12.984 9.14847C13.342 9.05647 13.652 8.81347 14.274 8.32847L15.16 7.63447C15.78 7.14847 16.09 6.90547 16.207 6.62547C16.2573 6.50545 16.2833 6.37661 16.2833 6.24647C16.2833 6.11633 16.2573 5.98749 16.207 5.86747C16.091 5.58747 15.78 5.34447 15.16 4.85947L14.273 4.16547C13.653 3.67947 13.343 3.43647 12.984 3.34547C12.6662 3.26621 12.3338 3.26621 12.016 3.34547C11.658 3.43647 11.348 3.67947 10.726 4.16547L9.84 4.85947C9.22 5.34447 8.91 5.58747 8.793 5.86747C8.74267 5.98749 8.71675 6.11633 8.71675 6.24647C8.71675 6.37661 8.74267 6.50545 8.793 6.62547C8.909 6.90547 9.22 7.14847 9.84 7.63447ZM15.75 12.2595L16.637 12.9535C17.257 13.4395 17.568 13.6825 17.927 13.7735C18.241 13.8535 18.58 13.8535 18.895 13.7735C19.253 13.6825 19.563 13.4395 20.183 12.9535L21.07 12.2595C21.69 11.7745 22.001 11.5315 22.117 11.2515C22.1673 11.1315 22.1933 11.0026 22.1933 10.8725C22.1933 10.7423 22.1673 10.6135 22.117 10.4935C22.001 10.2135 21.691 9.97047 21.07 9.48447L20.183 8.79047C19.563 8.30547 19.253 8.06247 18.895 7.97047C18.5769 7.89104 18.2441 7.89104 17.926 7.97047C17.568 8.06247 17.258 8.30547 16.637 8.79047L15.751 9.48447C15.13 9.97047 14.82 10.2135 14.704 10.4935C14.6537 10.6135 14.6277 10.7423 14.6277 10.8725C14.6277 11.0026 14.6537 11.1315 14.704 11.2515C14.82 11.5315 15.13 11.7745 15.751 12.2595H15.75ZM3.93 12.2595L10.727 17.5795C11.347 18.0655 11.657 18.3075 12.016 18.3995C12.331 18.4795 12.669 18.4795 12.984 18.3995C13.342 18.3075 13.652 18.0655 14.274 17.5795L15.16 16.8855C15.78 16.3995 16.09 16.1565 16.207 15.8765C16.2579 15.7566 16.2841 15.6277 16.2841 15.4975C16.2841 15.3672 16.2579 15.2383 16.207 15.1185C16.091 14.8385 15.78 14.5955 15.16 14.1105L8.363 8.79047C7.743 8.30547 7.432 8.06247 7.073 7.97047C6.7552 7.89121 6.4228 7.89121 6.105 7.97047C5.747 8.06247 5.437 8.30547 4.817 8.79047L3.93 9.48447C3.31 9.97047 2.999 10.2135 2.883 10.4935C2.83267 10.6135 2.80675 10.7423 2.80675 10.8725C2.80675 11.0026 2.83267 11.1315 2.883 11.2515C2.999 11.5315 3.309 11.7745 3.93 12.2595Z" fill="black"/>
</g>
<defs>
<clipPath id="clip0_456_1284">
<rect width="24" height="24" fill="white" transform="translate(0.5 0.4375)"/>
</clipPath>
</defs>
</svg>
