<svg width="63" height="63" viewBox="0 0 63 63" fill="none" xmlns="http://www.w3.org/2000/svg">
<path id="Soft Star" d="M25.3687 1.02612C25.3225 0.02453 26.7478 -0.211759 27.0273 0.751155L29.3711 8.82927C32.3976 19.2603 42.1774 26.2586 53.0269 25.7572L61.4292 25.3689C62.4309 25.3227 62.6672 26.748 61.7042 27.0275L53.6261 29.3713C43.1951 32.3978 36.1968 42.1776 36.6982 53.0271L37.0866 61.4294C37.1328 62.4311 35.7074 62.6674 35.4279 61.7044L33.0841 53.6263C30.0577 43.1953 20.2779 36.197 9.42823 36.6984L1.02593 37.0868C0.0243439 37.1329 -0.211945 35.7076 0.750969 35.4281L8.82909 33.0843C19.2601 30.0579 26.2585 20.278 25.757 9.42841L25.3687 1.02612Z" fill="#FCF8F6"/>
</svg>
