<svg width="113" height="96" viewBox="0 0 113 96" fill="none" xmlns="http://www.w3.org/2000/svg">
<path id="Stairs 1" d="M1.16535 14.9211C-0.0305379 10.6678 2.44803 6.25027 6.70138 5.05438L21.1983 0.97837C25.4516 -0.21752 29.8691 2.26104 31.065 6.5144L35.141 21.0113C36.3369 25.2647 40.7544 27.7432 45.0078 26.5473L59.5042 22.4715C63.7576 21.2756 68.1751 23.7541 69.3709 28.0075L73.4468 42.5039C74.6427 46.7573 79.0602 49.2359 83.3136 48.04L97.8105 43.964C102.064 42.7681 106.481 45.2466 107.677 49.5L111.753 63.9969C112.949 68.2503 110.471 72.6678 106.217 73.8636L31.9214 94.7529C27.668 95.9488 23.2505 93.4703 22.0546 89.2169L1.16535 14.9211Z" fill="#C7B43F"/>
</svg>
