<svg width="117" height="114" viewBox="0 0 117 114" fill="none" xmlns="http://www.w3.org/2000/svg">
<path id="Star" d="M51.9579 5.18655C54.2468 -0.826458 62.7532 -0.826465 65.0421 5.18654L71.3424 21.738C72.6653 25.2133 76.4745 27.0477 80.0164 25.9152L96.885 20.5213C103.013 18.5618 108.317 25.2124 105.043 30.7509L96.0306 45.9964C94.1383 49.1974 95.0791 53.3194 98.1729 55.3824L112.907 65.2078C118.26 68.7773 116.368 77.0705 109.996 77.9639L92.4575 80.4232C88.775 80.9396 86.1389 84.2452 86.4549 87.9503L87.9599 105.596C88.5067 112.007 80.8427 115.698 76.1715 111.273L63.3137 99.0945C60.614 96.5373 56.386 96.5373 53.6863 99.0945L40.8285 111.273C36.1573 115.698 28.4933 112.007 29.0401 105.596L30.5451 87.9503C30.8611 84.2452 28.225 80.9396 24.5425 80.4232L7.00406 77.9639C0.632486 77.0705 -1.26038 68.7773 4.09255 65.2078L18.8271 55.3824C21.9209 53.3194 22.8617 49.1974 20.9694 45.9964L11.9571 30.7509C8.68304 25.2124 13.9867 18.5618 20.1149 20.5213L36.9836 25.9152C40.5255 27.0477 44.3347 25.2133 45.6576 21.738L51.9579 5.18655Z" fill="#E63A26"/>
</svg>
