<svg width="75" height="75" viewBox="0 0 75 75" fill="none" xmlns="http://www.w3.org/2000/svg">
<g id="streamline:pencil-solid" clip-path="url(#clip0_269_1960)">
<path id="Vector" d="M57.4013 -0.00537102C56.334 -0.00520511 55.2774 0.207583 54.2932 0.62057C53.309 1.03356 52.417 1.63847 51.6691 2.39999L7.53699 46.3125C7.21057 46.6396 6.97435 47.0456 6.85127 47.4911L0.101272 71.5982C-0.0263814 72.0556 -0.0301329 72.5387 0.0904015 72.9981C0.210936 73.4574 0.451423 73.8764 0.787221 74.2122C1.12302 74.548 1.54206 74.7885 2.00139 74.9091C2.46073 75.0296 2.94386 75.0258 3.40127 74.8982L27.5084 68.1482C27.9538 68.0251 28.3599 67.7889 28.687 67.4625L72.5995 23.3303L72.6102 23.325C73.3618 22.5781 73.9582 21.6901 74.3652 20.7118C74.7722 19.7336 74.9818 18.6845 74.9818 17.625C74.9818 16.5655 74.7722 15.5164 74.3652 14.5381C73.9582 13.5599 73.3618 12.6718 72.6102 11.925L72.5995 11.9196L63.1388 2.40534C62.3909 1.64197 61.4983 1.03554 60.513 0.621585C59.5278 0.207631 58.4699 -0.0055178 57.4013 -0.00537102Z" fill="#FCF8F6"/>
</g>
<defs>
<clipPath id="clip0_269_1960">
<rect width="75" height="75" fill="white"/>
</clipPath>
</defs>
</svg>
