<svg width="49" height="49" viewBox="0 0 49 49" fill="none" xmlns="http://www.w3.org/2000/svg">
<path id="Summertime Sadness" d="M12.25 0C5.48451 0 0 5.48451 0 12.25C0 19.0156 5.48451 24.5 12.25 24.5C5.48451 24.5 0 29.9844 0 36.75C0 43.5156 5.48451 49 12.25 49C19.0156 49 24.5 43.5156 24.5 36.75C24.5 43.5156 29.9844 49 36.75 49C43.5156 49 49 43.5156 49 36.75C49 29.9844 43.5156 24.5 36.75 24.5C43.5156 24.5 49 19.0156 49 12.25C49 5.48451 43.5156 0 36.75 0C29.9844 0 24.5 5.48451 24.5 12.25C24.5 5.48451 19.0156 0 12.25 0Z" fill="white"/>
</svg>
