<svg width="154" height="220" viewBox="0 0 154 220" fill="none" xmlns="http://www.w3.org/2000/svg">
<path id="Summertime Sadness" d="M31.6629 3.36573C6.69963 -5.67281 -20.8643 7.23674 -29.9028 32.2C-38.9415 57.1636 -26.0318 84.7272 -1.06857 93.7657C-26.0318 84.7272 -53.5956 97.6363 -62.6343 122.6C-71.673 147.564 -58.7633 175.127 -33.8 184.166C-8.83638 193.204 18.727 180.295 27.7657 155.331C18.727 180.295 31.6363 207.858 56.6 216.897C81.5636 225.936 109.127 213.027 118.166 188.063C127.204 163.099 114.295 135.536 89.3314 126.497C114.295 135.536 141.858 122.627 150.897 97.6629C159.936 72.6997 147.027 45.1359 122.063 36.0972C97.0992 27.0585 69.5357 39.9682 60.4972 64.9315C69.5357 39.9682 56.6265 12.4044 31.6629 3.36573Z" fill="#ECE7E1"/>
</svg>
