<svg width="29" height="29" viewBox="0 0 29 29" fill="none" xmlns="http://www.w3.org/2000/svg">
<g id="tabler:mail">
<g id="Group">
<path id="Vector" d="M4 8.60433C4 7.98549 4.24583 7.392 4.68342 6.95441C5.121 6.51683 5.71449 6.271 6.33333 6.271H22.6667C23.2855 6.271 23.879 6.51683 24.3166 6.95441C24.7542 7.392 25 7.98549 25 8.60433V20.271C25 20.8898 24.7542 21.4833 24.3166 21.9209C23.879 22.3585 23.2855 22.6043 22.6667 22.6043H6.33333C5.71449 22.6043 5.121 22.3585 4.68342 21.9209C4.24583 21.4833 4 20.8898 4 20.271V8.60433Z" stroke="black" stroke-width="2.33333" stroke-linecap="round" stroke-linejoin="round"/>
<path id="Vector_2" d="M4 8.604L14.5 15.604L25 8.604" stroke="black" stroke-width="2.33333" stroke-linecap="round" stroke-linejoin="round"/>
</g>
</g>
</svg>
