<svg width="21" height="21" viewBox="0 0 21 21" fill="none" xmlns="http://www.w3.org/2000/svg">
<g id="uiw:down">
<path id="Vector" d="M10.833 13.1425L17.54 6.44453C17.6051 6.37908 17.6827 6.32736 17.7681 6.29244C17.8536 6.25751 17.9452 6.24009 18.0375 6.24121C18.1298 6.24233 18.221 6.26197 18.3056 6.29895C18.3902 6.33594 18.4665 6.38952 18.53 6.45653C18.6601 6.5936 18.7316 6.776 18.7294 6.96497C18.7271 7.15394 18.6513 7.33459 18.518 7.46853L11.315 14.6615C11.2504 14.7266 11.1734 14.7781 11.0886 14.8131C11.0038 14.8481 10.9129 14.8658 10.8212 14.8653C10.7295 14.8647 10.6388 14.8459 10.5545 14.8099C10.4701 14.7739 10.3938 14.7214 10.33 14.6555L2.93498 7.08453C2.8041 6.949 2.73096 6.76794 2.73096 6.57953C2.73096 6.39112 2.8041 6.21007 2.93498 6.07453C2.99929 6.00831 3.07624 5.95566 3.16127 5.91971C3.24629 5.88376 3.33767 5.86523 3.42998 5.86523C3.52229 5.86523 3.61367 5.88376 3.6987 5.91971C3.78372 5.95566 3.86067 6.00831 3.92498 6.07453L10.833 13.1425Z" fill="black"/>
</g>
</svg>
