<svg width="97" height="97" viewBox="0 0 97 97" fill="none" xmlns="http://www.w3.org/2000/svg">
<path id="Vector" d="M43.6913 66.1465C42.8878 64.75 41.7248 63.5944 40.3233 62.7998C38.9217 62.0052 37.3329 61.6008 35.722 61.6284L7.16594 62.1221C6.67548 62.1187 6.19951 61.9554 5.81025 61.657C5.421 61.3586 5.1397 60.9414 5.00904 60.4686C4.87838 59.9959 4.90549 59.4934 5.08626 59.0375C5.26703 58.5816 5.59159 58.197 6.0107 57.9422L30.766 43.6968C32.162 42.8938 33.3174 41.7316 34.1122 40.3308C34.907 38.9301 35.312 37.3421 35.2852 35.7318L34.7916 7.17577C34.7932 6.68388 34.9556 6.20601 35.2541 5.81508C35.5527 5.42414 35.9709 5.1416 36.445 5.01056C36.9192 4.87952 37.4231 4.90718 37.8801 5.08932C38.337 5.27146 38.7218 5.59807 38.9758 6.01933L53.2125 30.777C54.016 32.1735 55.179 33.3291 56.5805 34.1237C57.9821 34.9182 59.571 35.3227 61.1818 35.2951L89.7367 34.7971C90.23 34.7968 90.7098 34.9584 91.1024 35.2571C91.4951 35.5558 91.7789 35.975 91.9103 36.4505C92.0417 36.9261 92.0135 37.4316 91.83 37.8895C91.6465 38.3474 91.3178 38.7325 90.8943 38.9856L66.1366 53.2223C64.7402 54.0258 63.5846 55.1888 62.79 56.5904C61.9954 57.9919 61.5909 59.5808 61.6186 61.1917L62.1122 89.7477C62.1107 90.2396 61.9482 90.7175 61.6497 91.1084C61.3511 91.4994 60.9329 91.7819 60.4588 91.9129C59.9847 92.044 59.4807 92.0163 59.0238 91.8342C58.5668 91.652 58.182 91.3254 57.9281 90.9042L43.6913 66.1465Z" fill="#C9B749" stroke="#C9B749" stroke-width="9.01569" stroke-linecap="round" stroke-linejoin="round"/>
</svg>
