<svg width="22" height="22" viewBox="0 0 22 22" fill="none" xmlns="http://www.w3.org/2000/svg">
<path id="Vector" d="M8.93528 14.4999C8.846 14.1538 8.66562 13.838 8.41291 13.5853C8.16019 13.3326 7.84437 13.1522 7.49831 13.0629L1.36347 11.481C1.2588 11.4513 1.16668 11.3882 1.10109 11.3014C1.03549 11.2146 1 11.1088 1 11C1 10.8912 1.03549 10.7854 1.10109 10.6986C1.16668 10.6118 1.2588 10.5487 1.36347 10.519L7.49831 8.93605C7.84425 8.84686 8.15999 8.66663 8.41269 8.4141C8.6654 8.16157 8.84584 7.84597 8.93528 7.50009L10.5172 1.36524C10.5466 1.26016 10.6096 1.16759 10.6966 1.10164C10.7835 1.0357 10.8896 1 10.9987 1C11.1078 1 11.214 1.0357 11.3009 1.10164C11.3878 1.16759 11.4508 1.26016 11.4802 1.36524L13.0612 7.50009C13.1504 7.84615 13.3308 8.16197 13.5835 8.41468C13.8363 8.6674 14.1521 8.84778 14.4981 8.93705L20.633 10.518C20.7385 10.5471 20.8315 10.61 20.8978 10.6971C20.9641 10.7841 21 10.8906 21 11C21 11.1094 20.9641 11.2158 20.8978 11.3029C20.8315 11.39 20.7385 11.4529 20.633 11.482L14.4981 13.0629C14.1521 13.1522 13.8363 13.3326 13.5835 13.5853C13.3308 13.838 13.1504 14.1538 13.0612 14.4999L11.4792 20.6348C11.4498 20.7398 11.3868 20.8324 11.2999 20.8984C11.213 20.9643 11.1068 21 10.9977 21C10.8886 21 10.7825 20.9643 10.6956 20.8984C10.6086 20.8324 10.5456 20.7398 10.5162 20.6348L8.93528 14.4999Z" fill="#FCF8F6" stroke="#FCF8F6" stroke-width="1.99995" stroke-linecap="round" stroke-linejoin="round"/>
</svg>
